# xmcd
#
# Track frame offsets:
#	150
#	16827
#	38598
#	53203
#	71543
#	85766
#	103837
#	130776
#	155154
#	176584
#
# Disc length: 2676 seconds
#
# Revision: 0
# Processed by: cddbd v1.5.2PL0 Copyright (c) Steve Scherf et al.
# Submitted via: audiograbber 1.83.01
#
DISCID=7b0a720a
DTITLE=Stitch - Live im Klimperkasten Fritzlar (13.01.1988) CD I
DYEAR=1988
DGENRE=Blues
TTITLE0=Born in Chicago
TTITLE1=Thrill is gone
TTITLE2=Same old Blues
TTITLE3=Mojo Workin'
TTITLE4=Come on
TTITLE5=Rockin' Daddy
TTITLE6=Little Red Rooster
TTITLE7=She caught the Katy
TTITLE8=Statesboro Blues
TTITLE9=My Babe
EXTD=
EXTT0=
EXTT1=
EXTT2=
EXTT3=
EXTT4=
EXTT5=
EXTT6=
EXTT7=
EXTT8=
EXTT9=
PLAYORDER=
